HIERARCHY
ROOT Hips
{
	OFFSET -0.179506 -22.333345 2.821913
	CHANNELS 6 Xposition Yposition Zposition Zrotation Yrotation Xrotation 
	JOINT LeftUpLeg
	{
		OFFSET 6.951974 -9.140623 -0.681533
		CHANNELS 3 Zrotation Yrotation Xrotation
		JOINT LeftLeg
		{
			OFFSET 3.427654 -37.519855 -0.449580
			CHANNELS 3 Zrotation Yrotation Xrotation
			JOINT LeftFoot
			{
				OFFSET -1.359570 -39.796059 -4.369333
				CHANNELS 3 Zrotation Yrotation Xrotation
				JOINT LeftToe
				{
					OFFSET 2.635814 -5.579078 11.928840
					CHANNELS 3 Zrotation Yrotation Xrotation
					End Site
					{
						OFFSET 0.000000 0.000000 0.000000
					}
				}
			}
		}
	}
	JOINT RightUpLeg
	{
		OFFSET -6.767048 -9.052170 -0.431982
		CHANNELS 3 Zrotation Yrotation Xrotation
		JOINT RightLeg
		{
			OFFSET -3.829005 -38.256897 -0.885003
			CHANNELS 3 Zrotation Yrotation Xrotation
			JOINT RightFoot
			{
				OFFSET 1.577377 -39.841461 -4.231180
				CHANNELS 3 Zrotation Yrotation Xrotation
				JOINT RightToe
				{
					OFFSET -2.537174 -4.814398 12.334795
					CHANNELS 3 Zrotation Yrotation Xrotation
					End Site
					{
						OFFSET 0.000000 0.000000 0.000000
					}
				}
			}
		}
	}
	JOINT Spine
	{
		OFFSET -0.253288 10.896323 -2.669631
		CHANNELS 3 Zrotation Yrotation Xrotation
		JOINT Spine1
		{
			OFFSET 0.548704 13.518043 0.109247
			CHANNELS 3 Zrotation Yrotation Xrotation
			JOINT Spine2
			{
				OFFSET 0.145701 5.292222 2.542457
				CHANNELS 3 Zrotation Yrotation Xrotation
				JOINT Neck
				{
					OFFSET -0.277840 21.387037 -4.285703
					CHANNELS 3 Zrotation Yrotation Xrotation
					JOINT Head
					{
						OFFSET 0.515184 6.496960 5.134897
						CHANNELS 3 Zrotation Yrotation Xrotation
						End Site
						{
							OFFSET 0.000000 0.000000 0.000000
						}
					}
				}
				JOINT LeftShoulder
				{
					OFFSET 7.884473 12.174932 -3.408961
					CHANNELS 3 Zrotation Yrotation Xrotation
					JOINT LeftArm
					{
						OFFSET 9.097692 3.046888 -0.886815
						CHANNELS 3 Zrotation Yrotation Xrotation
						JOINT LeftForeArm
						{
							OFFSET 25.961220 -1.277207 -2.745643
							CHANNELS 3 Zrotation Yrotation Xrotation
							JOINT LeftHand
							{
								OFFSET 24.923361 0.898606 -0.117091
								CHANNELS 3 Zrotation Yrotation Xrotation
								End Site
								{
									OFFSET 0.000000 0.000000 0.000000
								}
							}
						}
					}
				}
				JOINT RightShoulder
				{
					OFFSET -8.175920 11.883285 -3.861528
					CHANNELS 3 Zrotation Yrotation Xrotation
					JOINT RightArm
					{
						OFFSET -9.601238 3.255117 -0.914307
						CHANNELS 3 Zrotation Yrotation Xrotation
						JOINT RightForeArm
						{
							OFFSET -25.374195 -1.332924 -2.140099
							CHANNELS 3 Zrotation Yrotation Xrotation
							JOINT RightHand
							{
								OFFSET -25.529810 0.777228 -0.555919
								CHANNELS 3 Zrotation Yrotation Xrotation
								End Site
								{
									OFFSET 0.000000 0.000000 0.000000
								}
							}
						}
					}
				}
			}
		}
	}
}
MOTION
Frames: 17
Frame Time: 0.033333
65.606606 -15.434930 99.881927 178.389404 -0.390127 89.655995 -1.197678 -0.822196 4.105196 -1.997742 -6.703827 -1.964247 3.978527 12.435912 -6.311532 nan nan nan 1.470697 0.870500 3.603375 3.598564 6.200961 -1.667133 5.849573 -2.603540 1.941893 nan nan nan -2.181567 2.830927 -1.893002 2.801700 -3.212842 10.491348 -0.507107 0.821971 -3.860476 -5.237629 9.358363 0.995012 0.560003 5.491497 -7.094723 -23.753696 0.387038 1.627818 -61.956354 -4.949576 20.913210 6.698542 -17.323311 9.376572 -3.261628 -13.923080 5.969989 25.936293 2.204806 2.220951 64.024395 3.452252 11.610617 -17.168744 18.072296 -19.287725 -2.106164 11.559606 -14.405390 
65.642952 -15.397882 99.836121 178.137464 -0.689588 89.412227 -1.553828 -1.576832 4.635057 -1.893346 -6.191730 -2.422423 4.084038 12.213818 -5.313559 nan nan nan 1.245266 1.131204 3.838467 3.756298 5.637169 -1.531077 5.779456 -2.311147 1.292138 nan nan nan -2.559709 2.983255 -1.341167 2.696286 -3.218231 10.092141 -0.314981 0.776660 -3.567090 -4.745895 8.437409 1.463024 1.148236 4.493147 -6.912441 -23.114154 0.814344 0.620333 -63.821027 -5.377007 20.187886 9.946534 -17.805048 -0.672492 -1.637148 -18.810301 -7.314688 25.553071 2.582207 1.430615 65.029349 2.955091 12.933630 -18.172458 17.271125 -20.065303 -2.577528 12.286770 -15.875619 
65.652168 -15.394128 99.833687 178.177101 -0.624175 89.448677 -1.484935 -1.664160 4.586363 -1.837941 -6.429590 -2.374638 3.960730 12.153391 -5.493193 nan nan nan 1.331643 1.141451 3.720742 3.784217 5.504795 -1.395462 5.870324 -2.399361 1.106907 nan nan nan -2.508613 2.944098 -1.287224 2.694626 -3.208410 9.953839 -0.285666 0.785077 -3.465918 -4.835487 8.474621 1.478768 1.220844 4.507614 -7.065730 -23.151046 0.757995 0.595802 -63.862365 -5.322954 20.223474 10.008870 -17.794099 -0.534049 -1.348568 -19.055864 -7.570935 25.514997 2.647712 1.394742 65.115884 2.885661 12.895745 -18.248450 17.354268 -20.045052 -2.725863 12.427726 -16.222588 
65.700752 -15.103116 99.850883 179.321210 -0.500804 88.916636 -1.194907 -2.016444 5.435905 -1.922763 -7.392706 -2.669984 3.907426 11.961028 -5.464446 nan nan nan 1.719801 1.739786 5.003759 3.704845 4.602111 -2.257993 5.880715 -3.303333 0.621935 nan nan nan -2.812434 2.491931 -1.150640 3.041334 -3.672894 10.062667 -0.091102 0.665322 -3.150930 -4.922833 7.573267 2.177598 1.909010 4.222775 -7.287298 -23.177417 0.814250 0.797999 -63.896389 -5.619655 20.257812 9.571552 -17.702815 0.147236 -4.233907 -19.343827 -8.956964 25.469706 2.551716 0.999963 65.243772 3.341402 12.441139 -18.451627 16.455380 -20.285202 -0.870439 12.182535 -15.137035 
65.723679 -15.151476 99.837646 179.309616 -0.470713 88.999808 -1.116022 -1.896028 5.224263 -2.074411 -6.956850 -2.587116 4.095920 11.973461 -5.365323 nan nan nan 1.701576 1.156319 4.905198 3.720466 5.228456 -2.404845 5.808638 -3.252284 0.692380 nan nan nan -3.027963 2.691755 -1.228506 3.485279 -3.856343 10.254912 -0.177283 0.687523 -3.216278 -1.709351 1.627026 5.444783 4.891704 -0.261626 -3.819076 -23.524590 1.259493 1.246284 -63.766298 -6.675610 20.640400 9.559651 -17.250209 -0.040140 -4.421929 -19.536546 -9.112664 25.189249 2.491710 0.697348 65.495473 3.372539 12.363216 -18.536085 16.344305 -20.504344 -0.814476 12.293622 -15.070437 
65.746277 -15.088845 99.812836 179.481247 -0.390599 88.628380 -0.988066 -1.290593 5.474033 -2.727306 -5.273902 -2.281907 4.250795 12.053337 -5.453348 nan nan nan 1.944161 1.667697 5.518393 3.549305 4.955167 -2.670205 5.826252 -3.215970 0.486875 nan nan nan -2.898499 2.543071 -0.892035 3.471786 -3.917250 10.450131 -0.260428 0.679076 -3.181312 -1.191313 1.839146 5.093485 4.313612 -0.768409 -3.481097 -23.366647 1.205804 1.104983 -64.081631 -6.779434 20.619465 9.858333 -16.881650 0.267431 -4.590602 -20.155868 -9.475877 25.063797 2.640820 0.579946 65.827898 3.478833 12.361326 -18.754594 16.219405 -20.904779 -0.749387 12.503032 -14.908599 
65.752617 -15.040992 99.810204 179.491896 -0.369396 88.522319 -0.910132 -1.205469 5.561844 -2.908123 -4.796055 -2.231745 4.232504 12.195924 -5.288756 nan nan nan 2.029013 1.903387 5.744738 3.411943 5.028542 -2.804788 5.855613 -3.123157 0.687644 nan nan nan -2.865380 2.541545 -0.675466 3.471443 -3.931521 10.284453 -0.281024 0.677928 -3.081854 -1.049548 1.835807 5.018197 4.228309 -0.874967 -3.363884 -23.362075 1.178391 1.063694 -64.206541 -6.762235 20.674594 10.016651 -16.731346 0.506274 -4.241770 -20.349785 -9.813509 25.046175 2.668711 0.577242 65.892146 3.503612 12.394508 -18.751752 16.264755 -20.898612 -0.911603 12.553929 -15.155221 
65.761063 -15.026717 99.792480 179.437204 -0.345184 88.567459 -0.833208 -1.173886 5.479576 -2.970428 -4.435344 -2.193306 4.177592 12.196524 -5.094698 nan nan nan 2.036807 1.782071 5.732083 3.369046 5.237107 -2.883358 5.888705 -2.891957 1.021907 nan nan nan -2.835196 2.608378 -0.686303 3.466036 -3.944494 10.199601 -0.306168 0.675308 -2.967196 -0.977290 1.757800 5.055604 4.243488 -0.986801 -3.401833 -23.299482 1.100313 1.035376 -64.319390 -6.750864 20.725593 10.092689 -16.633453 0.549857 -4.079968 -20.368576 -10.050767 24.998985 2.713038 0.562441 65.993576 3.515503 12.423448 -18.820514 16.298386 -20.879508 -0.907252 12.538538 -15.191217 
65.751274 -15.060065 99.768410 179.258034 -0.278741 88.829780 -0.798931 -1.287672 5.210894 -2.789148 -4.493370 -2.287465 4.326754 12.135728 -5.262537 nan nan nan 2.005041 1.296907 5.332073 3.389369 5.660643 -2.744115 5.891667 -2.569925 1.197246 nan nan nan -2.674699 2.778662 -1.080306 3.410922 -3.929970 10.363906 -0.348723 0.647968 -2.970765 -1.006483 1.672051 4.985699 4.246243 -0.980158 -3.242750 -23.313411 0.953460 1.024339 -64.387763 -6.672286 20.704687 10.218493 -16.576243 0.399984 -4.180551 -20.329680 -10.049909 24.971226 2.779024 0.582534 66.002775 3.488394 12.366363 -18.827886 16.397157 -20.827215 -0.740389 12.581315 -15.094729 
65.747032 -15.048039 99.769936 179.263841 -0.246394 88.784555 -0.703350 -1.369956 5.278651 -2.958491 -4.280155 -2.302556 4.612539 12.001681 -5.162089 nan nan nan 1.980480 1.153959 5.293509 3.476794 5.519196 -2.522559 5.880962 -2.394398 0.991279 nan nan nan -2.620244 2.862426 -0.980859 3.423996 -3.979527 10.341875 -0.322235 0.654314 -3.291815 -2.464879 1.751816 6.278472 4.143037 -0.450419 -4.792888 -23.371513 0.732106 1.559881 -64.346085 -6.628257 20.450124 10.295726 -16.650647 1.129004 -4.024055 -20.810773 -11.299600 24.749575 2.862875 1.002137 66.245954 3.562901 11.906561 -18.889489 16.389540 -20.479861 -0.558122 12.828967 -14.991323 
65.769394 -15.029484 99.779129 179.243532 -0.258658 88.765873 -0.645595 -1.281097 5.275292 -3.098170 -4.055034 -2.233866 4.579427 12.023322 -4.912884 nan nan nan 1.937205 1.069382 5.273413 3.565512 5.500810 -2.427894 5.805271 -2.346906 0.986069 nan nan nan -2.701178 2.878537 -0.915100 3.473697 -3.970099 10.301023 -0.300876 0.675427 -3.274164 -2.451106 1.745666 6.340990 4.098165 -0.396246 -4.930910 -23.403228 0.769064 1.620201 -64.307567 -6.683733 20.487998 10.238080 -16.692328 1.373076 -3.731096 -20.847960 -11.572962 24.697396 2.814770 1.035628 66.358302 3.611727 11.949546 -18.922022 16.441581 -20.371139 -0.877190 12.815642 -15.168948 
65.794250 -15.009123 99.777863 179.255397 -0.267914 88.751334 -0.606247 -1.150872 5.262700 -3.163956 -3.885305 -2.177187 4.510451 11.986564 -4.722244 nan nan nan 1.965160 1.061885 5.331683 3.531859 5.529388 -2.495595 5.623806 -2.300438 1.096860 nan nan nan -2.786282 2.846777 -0.824797 3.502243 -3.942597 10.228507 -0.259218 0.704891 -3.251612 -2.413589 1.791613 6.362827 4.043093 -0.426224 -4.990999 -23.387091 0.864241 1.622359 -64.333301 -6.746409 20.576157 10.151742 -16.715869 1.567997 -3.281760 -20.777979 -11.817453 24.643435 2.735921 1.051576 66.459168 3.657174 12.078202 -18.859127 16.489132 -20.317225 -1.449812 12.806283 -15.580392 
65.792213 -14.999219 99.763519 179.323748 -0.251727 88.781807 -0.617317 -1.115742 5.214230 -3.061085 -3.995649 -2.148909 4.498389 11.969640 -4.935519 nan nan nan 2.046082 1.065538 5.341780 3.427334 5.562380 -2.521068 5.491826 -2.416900 0.780741 nan nan nan -2.743967 2.791762 -0.819194 3.439867 -3.940333 10.170881 -0.223391 0.702474 -3.167959 -2.392814 1.762445 6.313173 4.010403 -0.420678 -4.995840 -23.364832 0.941707 1.555544 -64.413773 -6.789992 20.605025 10.134761 -16.702345 1.599321 -3.159365 -20.718554 -11.762329 24.585965 2.689536 1.015224 66.567622 3.697617 12.111851 -18.845198 16.486111 -20.316946 -1.656121 12.804974 -15.762502 
65.790504 -14.998669 99.750763 179.355330 -0.247890 88.828716 -0.660806 -1.130904 5.155774 -2.979141 -4.040408 -2.139530 4.593834 11.965700 -5.185831 nan nan nan 2.119529 1.083736 5.293897 3.331005 5.599763 -2.486198 5.506381 -2.569049 0.309561 nan nan nan -2.676762 2.727213 -0.820593 3.354022 -3.964450 10.162209 -0.241682 0.701084 -3.164985 -2.283822 1.790064 6.114157 3.929182 -0.461726 -4.756396 -23.281060 1.076491 1.432049 -64.527759 -6.788262 20.638113 10.191882 -16.634595 1.489500 -3.373399 -20.736182 -11.426696 24.578607 2.687463 1.010784 66.692990 3.731612 12.236391 -18.960667 16.419417 -20.411010 -1.555543 12.805200 -15.738175 
65.802536 -14.986204 99.757423 179.358118 -0.267749 88.828875 -0.686764 -1.107380 5.145758 -3.016592 -3.965492 -2.095387 4.675381 11.829997 -5.066534 nan nan nan 2.130038 1.074433 5.304270 3.307036 5.556986 -2.528997 5.692564 -2.580335 0.472436 nan nan nan -2.684150 2.671401 -0.757422 3.345106 -3.994928 10.157830 -0.281127 0.737193 -3.224014 -2.206942 1.885534 6.097978 3.897907 -0.553897 -4.651947 -23.271748 1.137223 1.389224 -64.541191 -6.767482 20.665562 10.243413 -16.562346 1.411415 -3.513980 -20.737194 -11.267209 24.610528 2.736268 1.095093 66.790482 3.741037 12.351703 -19.137818 16.391116 -20.440409 -1.487092 12.836859 -15.718270 
65.817619 -14.974565 99.770988 179.364153 -0.272990 88.817124 -0.657151 -1.108411 5.144362 -3.086406 -4.029682 -2.033668 4.769067 11.704186 -4.716880 nan nan nan 2.129545 1.083229 5.298051 3.314395 5.486956 -2.502798 5.793690 -2.602689 0.961305 nan nan nan -2.682527 2.655775 -0.642750 3.366063 -4.003535 10.093433 -0.296247 0.766843 -3.264417 -2.200862 1.919456 6.183373 3.882525 -0.583806 -4.709817 -23.363966 1.062550 1.447592 -64.413717 -6.711946 20.648631 10.182499 -16.647754 1.522299 -3.369977 -20.730216 -11.458137 24.593242 2.798616 1.147078 66.891815 3.688184 12.337437 -19.269007 16.437898 -20.426934 -1.558644 12.811030 -15.876348 
65.832527 -14.971088 99.769859 179.377499 -0.272903 88.845982 -0.620928 -1.133669 5.093963 -3.131304 -4.178451 -1.981355 4.777796 11.672358 -4.636400 nan nan nan 2.140771 1.108367 5.211900 3.327785 5.478830 -2.370256 5.782699 -2.654969 1.036658 nan nan nan -2.664917 2.634433 -0.593863 3.358667 -4.011930 9.989372 -0.301439 0.786001 -3.181942 -2.217874 1.910329 6.189216 3.823380 -0.532880 -4.798701 -23.392465 1.012919 1.491497 -64.338847 -6.734499 20.574698 10.085016 -16.720587 1.631913 -3.213401 -20.707752 -11.611297 24.548542 2.844299 1.167121 66.986365 3.706801 12.261129 -19.306096 16.469662 -20.423250 -1.557767 12.750281 -16.001804 
